<mxfile host="app.diagrams.net" modified="2020-11-27T13:09:19.754Z" agent="5.0 (Windows NT 10.0; Win64; x64) AppleWebKit/537.36 (KHTML, like Gecko) Chrome/87.0.4280.66 Safari/537.36" etag="1GHRbp4H1d1hMG8hiX9f" version="13.10.4" type="github">
  <diagram id="C5RBs43oDa-KdzZeNtuy" name="Page-1">
    <mxGraphModel dx="1422" dy="762" grid="1" gridSize="10" guides="1" tooltips="1" connect="1" arrows="1" fold="1" page="1" pageScale="1" pageWidth="827" pageHeight="1169" math="0" shadow="0">
      <root>
        <mxCell id="WIyWlLk6GJQsqaUBKTNV-0" />
        <mxCell id="WIyWlLk6GJQsqaUBKTNV-1" parent="WIyWlLk6GJQsqaUBKTNV-0" />
        <mxCell id="zd05yzLT6SPf3-q7v2C3-24" value="" style="whiteSpace=wrap;html=1;aspect=fixed;fontFamily=Helvetica;align=center;" vertex="1" parent="WIyWlLk6GJQsqaUBKTNV-1">
          <mxGeometry x="160" y="110" width="470" height="470" as="geometry" />
        </mxCell>
        <mxCell id="zd05yzLT6SPf3-q7v2C3-4" value="Đăng nhập" style="ellipse;whiteSpace=wrap;html=1;" vertex="1" parent="WIyWlLk6GJQsqaUBKTNV-1">
          <mxGeometry x="335" y="285" width="120" height="80" as="geometry" />
        </mxCell>
        <mxCell id="zd05yzLT6SPf3-q7v2C3-5" value="Cập nhật thông tin tài khoản" style="ellipse;whiteSpace=wrap;html=1;" vertex="1" parent="WIyWlLk6GJQsqaUBKTNV-1">
          <mxGeometry x="500" y="420" width="120" height="80" as="geometry" />
        </mxCell>
        <mxCell id="zd05yzLT6SPf3-q7v2C3-6" value="Đăng xuất" style="ellipse;whiteSpace=wrap;html=1;" vertex="1" parent="WIyWlLk6GJQsqaUBKTNV-1">
          <mxGeometry x="190" y="420" width="120" height="80" as="geometry" />
        </mxCell>
        <mxCell id="zd05yzLT6SPf3-q7v2C3-7" value="Đổi mật khẩu" style="ellipse;whiteSpace=wrap;html=1;" vertex="1" parent="WIyWlLk6GJQsqaUBKTNV-1">
          <mxGeometry x="200" y="130" width="120" height="80" as="geometry" />
        </mxCell>
        <mxCell id="zd05yzLT6SPf3-q7v2C3-8" value="Xem thông tin tài khoản" style="ellipse;whiteSpace=wrap;html=1;" vertex="1" parent="WIyWlLk6GJQsqaUBKTNV-1">
          <mxGeometry x="490" y="130" width="120" height="80" as="geometry" />
        </mxCell>
        <mxCell id="zd05yzLT6SPf3-q7v2C3-9" value="Người dùng phổ thông" style="shape=umlActor;verticalLabelPosition=bottom;verticalAlign=top;html=1;outlineConnect=0;" vertex="1" parent="WIyWlLk6GJQsqaUBKTNV-1">
          <mxGeometry x="690" y="280" width="30" height="60" as="geometry" />
        </mxCell>
        <mxCell id="zd05yzLT6SPf3-q7v2C3-10" value="Doanh nghiệp tổ chức" style="shape=umlActor;verticalLabelPosition=bottom;verticalAlign=top;html=1;outlineConnect=0;labelBorderColor=none;align=center;fontFamily=Helvetica;" vertex="1" parent="WIyWlLk6GJQsqaUBKTNV-1">
          <mxGeometry x="70" y="285" width="30" height="60" as="geometry" />
        </mxCell>
        <mxCell id="zd05yzLT6SPf3-q7v2C3-11" value="Lãnh đạo cơ quan&lt;br&gt;Đơn vị tỉnh" style="shape=umlActor;verticalLabelPosition=bottom;verticalAlign=top;html=1;outlineConnect=0;" vertex="1" parent="WIyWlLk6GJQsqaUBKTNV-1">
          <mxGeometry x="210" y="620" width="30" height="60" as="geometry" />
        </mxCell>
        <mxCell id="zd05yzLT6SPf3-q7v2C3-12" value="Lãnh đạo phòng ban" style="shape=umlActor;verticalLabelPosition=bottom;verticalAlign=top;html=1;outlineConnect=0;" vertex="1" parent="WIyWlLk6GJQsqaUBKTNV-1">
          <mxGeometry x="555" y="610" width="30" height="60" as="geometry" />
        </mxCell>
        <mxCell id="zd05yzLT6SPf3-q7v2C3-17" value="" style="endArrow=classic;html=1;fontFamily=Helvetica;" edge="1" parent="WIyWlLk6GJQsqaUBKTNV-1">
          <mxGeometry width="50" height="50" relative="1" as="geometry">
            <mxPoint x="550" y="620" as="sourcePoint" />
            <mxPoint x="400.00311475409836" y="365" as="targetPoint" />
          </mxGeometry>
        </mxCell>
        <mxCell id="zd05yzLT6SPf3-q7v2C3-18" value="" style="endArrow=classic;html=1;fontFamily=Helvetica;" edge="1" parent="WIyWlLk6GJQsqaUBKTNV-1">
          <mxGeometry width="50" height="50" relative="1" as="geometry">
            <mxPoint x="240" y="610" as="sourcePoint" />
            <mxPoint x="394" y="365" as="targetPoint" />
          </mxGeometry>
        </mxCell>
        <mxCell id="zd05yzLT6SPf3-q7v2C3-22" value="" style="endArrow=classic;html=1;fontFamily=Helvetica;entryX=0.008;entryY=0.343;entryDx=0;entryDy=0;entryPerimeter=0;" edge="1" parent="WIyWlLk6GJQsqaUBKTNV-1" source="zd05yzLT6SPf3-q7v2C3-10" target="zd05yzLT6SPf3-q7v2C3-4">
          <mxGeometry width="50" height="50" relative="1" as="geometry">
            <mxPoint x="160" y="310" as="sourcePoint" />
            <mxPoint x="550" y="470" as="targetPoint" />
          </mxGeometry>
        </mxCell>
        <mxCell id="zd05yzLT6SPf3-q7v2C3-23" value="" style="endArrow=classic;html=1;fontFamily=Helvetica;entryX=0.98;entryY=0.35;entryDx=0;entryDy=0;entryPerimeter=0;" edge="1" parent="WIyWlLk6GJQsqaUBKTNV-1" target="zd05yzLT6SPf3-q7v2C3-4">
          <mxGeometry width="50" height="50" relative="1" as="geometry">
            <mxPoint x="680" y="310" as="sourcePoint" />
            <mxPoint x="585" y="315" as="targetPoint" />
            <Array as="points" />
          </mxGeometry>
        </mxCell>
      </root>
    </mxGraphModel>
  </diagram>
</mxfile>
